<?xml version="1.0" standalone="no"?><!DOCTYPE svg PUBLIC "-//W3C//DTD SVG 1.1//EN" "http://www.w3.org/Graphics/SVG/1.1/DTD/svg11.dtd"><svg t="1741068504015" class="icon" viewBox="0 0 1024 1024" version="1.1" xmlns="http://www.w3.org/2000/svg" p-id="6224" xmlns:xlink="http://www.w3.org/1999/xlink" width="200" height="200"><path d="M344 356h338l-20.4 439.8c-0.9 20.3-17.7 36.2-38 36.2H402.4c-20.3 0-37-16-38-36.2L344 356z" fill="#FF6C6D" p-id="6225"></path><path d="M670.8 597.4l-5.6 120.1c-26.4 1.8-51.7 1.8-75.8-0.1-69.1-5.4-104.9-92.9-179.3-132.8-11-5.9-29.7-9.5-56-10.8l-6.3-135.7c3.6 0.6 7.3 1.2 11.2 1.9 122.6 22.7 174.5 181.3 230.4 190.4 22.5 3.6 49.6-7.4 81.4-33z" fill="#FFFFFF" p-id="6226"></path><path d="M670.8 597.4l-5.6 120.1c-26.4 1.8-51.7 1.8-75.8-0.1-69.1-5.4-104.9-92.9-179.3-132.8-11-5.9-29.7-9.5-56-10.8l-6.3-135.7c3.6 0.6 7.3 1.2 11.2 1.9 122.6 22.7 174.5 181.3 230.4 190.4 22.5 3.6 49.6-7.4 81.4-33z" fill="#FFFFFF" p-id="6227"></path><path d="M680.2 356.8l1.8 0.1-1.8 38.1v1.5h-0.1l-18.5 399.2c-0.9 20.3-17.7 36.2-38 36.2h-62.2l30.4-435.4H332.2v-50.9h348v11.2z" fill="#FA3C48" p-id="6228"></path><path d="M670.8 597.4l-5.6 120.1c-26.4 1.8-51.7 1.8-75.8-0.1-6.9-0.5-13.4-1.9-19.7-3.9l6.2-88.1c4.5 2.5 9 4.2 13.5 5 22.5 3.6 49.6-7.4 81.4-33z" fill="#E9F4FF" p-id="6229"></path><path d="M538.2 283.5H713V356H311v-72.5h185.9v-75.1l-48.5-33.1 27.8-27.3 62 39.8z" fill="#EEF6FF" p-id="6230"></path><path d="M311 283.5h212V210l-73.5-52.5 29-17.5 87.5 45.5 4 98h143V326H311z" fill="#FFFFFF" p-id="6231"></path><path d="M344 356l20.4 439.8c0.9 20.3 17.7 36.2 38 36.2h221.3c20.3 0 37-16 38-36.2L682 356h31v-66.5c0-3.3-2.7-6-6-6H538.2v-95.7l-62-39.8-27.8 27.3 48.4 33v75.1H317c-3.3 0-6 2.7-6 6V356h33z m-38.2 39.7c-19.6-2.6-34.8-19.3-34.8-39.7v-66.5c0-25.4 20.6-46 46-46h139.9v-14l-31-21.1c-20.8-14.2-23.5-43.9-5.5-61.6l27.8-27.3c13.3-13.1 33.9-15.2 49.7-5.2l61.9 39.8c11.5 7.4 18.4 20 18.4 33.7v55.7H707c25.4 0 46 20.6 46 46V356c0 19.6-14.1 36-32.8 39.4l-18.7 402.3c-1.9 41.6-36.2 74.4-77.9 74.4H402.4c-41.7 0-76-32.8-77.9-74.4l-18.7-402z" fill="#721D0F" p-id="6232"></path></svg>